<?xml version="1.0" encoding="UTF-8"?>
<svg id="Capa_2" data-name="Capa 2" xmlns="http://www.w3.org/2000/svg" viewBox="0 0 146.75 39.71">
  <defs>
    <style>
      .cls-1 {
        fill: #fff;
      }

      .cls-2 {
        fill: #c1121f;
      }

      .cls-3 {
        fill: #1a1a1a;
        stroke: #fff;
        stroke-miterlimit: 10;
      }

      .cls-4 {
        fill: #1a1a1a;
      }
    </style>
  </defs>
  <g id="Capa_1-2" data-name="Capa 1">
    <g>
      <g>
        <path class="cls-1" d="M49.63,29.69V13.35h11.77c.93,0,1.75.16,2.44.48s1.22.76,1.59,1.34c.37.58.56,1.28.56,2.1,0,.62-.12,1.19-.36,1.71-.24.52-.57.97-.99,1.33-.42.37-.92.63-1.49.81v.09c.65.13,1.22.37,1.72.71.5.35.89.81,1.18,1.38.29.57.43,1.24.43,2.02,0,1.01-.23,1.84-.69,2.48-.46.64-1.07,1.11-1.83,1.41-.76.3-1.61.45-2.54.45h-11.79ZM52.2,20.3h8.25c.52,0,1-.1,1.44-.3.44-.2.79-.48,1.06-.86.27-.37.4-.83.4-1.37,0-.78-.23-1.34-.69-1.69s-1.07-.52-1.83-.52h-8.63v4.73ZM52.2,27.5h8.84c.82,0,1.49-.2,2.01-.59.51-.4.77-1.02.77-1.88,0-.57-.12-1.05-.34-1.44-.23-.39-.56-.68-1-.87-.44-.19-.94-.29-1.51-.29h-8.77v5.06Z"/>
        <path class="cls-1" d="M69.15,24.39v-2.4h7.51v2.4h-7.51Z"/>
        <path class="cls-1" d="M88.1,29.97c-1.16,0-2.26-.07-3.3-.21s-1.97-.39-2.78-.75c-.81-.36-1.44-.87-1.9-1.53-.46-.67-.69-1.52-.69-2.57,0-.08,0-.15.01-.21s.01-.11.01-.14h2.59c-.02.08-.03.17-.04.27,0,.1-.01.23-.01.37,0,.57.24,1.05.73,1.45.48.4,1.18.69,2.09.88.91.19,1.99.29,3.25.29.57,0,1.13-.03,1.69-.08s1.08-.14,1.57-.26c.49-.12.93-.28,1.31-.48.38-.2.68-.44.89-.73s.32-.62.32-1c0-.54-.19-.97-.58-1.3-.39-.32-.91-.59-1.57-.78-.66-.2-1.4-.37-2.24-.5-.83-.13-1.68-.27-2.56-.4-.87-.13-1.72-.31-2.54-.52s-1.57-.49-2.23-.83c-.67-.34-1.19-.78-1.58-1.32-.39-.54-.58-1.22-.58-2.04,0-.65.16-1.25.48-1.79s.8-1.02,1.46-1.43c.66-.4,1.5-.72,2.52-.94s2.25-.33,3.67-.33,2.68.13,3.67.38c.99.25,1.78.59,2.38,1.01s1.03.9,1.3,1.44.4,1.09.4,1.64v.45h-2.54v-.43c0-.43-.2-.81-.59-1.15-.4-.34-.97-.62-1.71-.84-.75-.22-1.64-.33-2.69-.33-1.28,0-2.34.09-3.17.27-.83.18-1.46.44-1.88.77-.42.33-.63.73-.63,1.19s.19.84.58,1.13c.39.29.92.53,1.58.7.67.17,1.41.33,2.24.46s1.67.27,2.54.42c.87.14,1.72.32,2.56.52s1.58.49,2.23.84c.66.36,1.18.81,1.57,1.36.39.55.58,1.22.58,2.03,0,1.24-.35,2.23-1.06,2.97s-1.69,1.28-2.96,1.59c-1.27.32-2.73.48-4.37.48Z"/>
        <path class="cls-1" d="M100.56,29.69V13.35h2.57v16.33h-2.57Z"/>
        <path class="cls-1" d="M108.26,29.69V13.35h8.32c1.98,0,3.68.31,5.09.94,1.41.63,2.5,1.54,3.26,2.75.76,1.21,1.14,2.7,1.14,4.49s-.38,3.27-1.14,4.48c-.76,1.21-1.85,2.13-3.26,2.75-1.41.62-3.11.93-5.09.93h-8.32ZM110.83,27.5h5.66c.98,0,1.89-.11,2.72-.33.83-.22,1.57-.56,2.2-1.02s1.12-1.05,1.47-1.77c.35-.72.52-1.58.52-2.58v-.55c0-.98-.17-1.83-.52-2.56-.35-.72-.84-1.31-1.47-1.78s-1.37-.81-2.2-1.02-1.74-.32-2.72-.32h-5.66v11.93Z"/>
        <path class="cls-1" d="M130.49,29.69V13.35h16.07v2.21h-13.5v4.68h12.15v2.19h-12.15v5.06h13.69v2.19h-16.26Z"/>
      </g>
      <g>
        <circle class="cls-3" cx="19.86" cy="19.86" r="19.36"/>
        <g>
          <path class="cls-4" d="M19.61,25.42c0-3.67,0-7.34,0-11.01,7.43,0,7.13,11.01,0,11.01Z"/>
          <g>
            <path class="cls-1" d="M19.63,14.41c0-2.21,0-4.42,0-6.63,8.47.05,14.25,8.33,11.32,16.37-1.68,4.61-6.39,7.93-11.32,7.79,0-2.17,0-4.34,0-6.51,7.12,0,7.42-11.01,0-11.01Z"/>
            <path class="cls-2" d="M19.63,14.41c0,3.67,0,7.34,0,11.01-7.04,0-7.39-11.01,0-11.01Z"/>
          </g>
        </g>
      </g>
    </g>
  </g>
</svg>